<?xml version="1.0" standalone="no"?><!DOCTYPE svg PUBLIC "-//W3C//DTD SVG 1.1//EN" "http://www.w3.org/Graphics/SVG/1.1/DTD/svg11.dtd"><svg t="1683880794435" class="icon" viewBox="0 0 1024 1024" version="1.1" xmlns="http://www.w3.org/2000/svg" p-id="3398" xmlns:xlink="http://www.w3.org/1999/xlink" width="256" height="256"><path d="M106.56 128H451.2a68.8 68.8 0 0 1 68.8 68.8V256h-448V162.56A34.56 34.56 0 0 1 106.56 128z" fill="#F9C638" p-id="3399"></path><path d="M320.96 256l-248.96 3.84V256h248.96zM742.4 256l-670.4 10.56v-6.72L320.96 256H742.4z" fill="#FFE894" p-id="3400"></path><path d="M904 260.16l-832 12.8v-6.4L742.4 256h161.6v4.16z" fill="#FFE893" p-id="3401"></path><path d="M904 266.56l-832 13.12v-6.72l832-12.8v6.4z" fill="#FFE792" p-id="3402"></path><path d="M904 273.28l-832 12.8v-6.4l832-13.12v6.72z" fill="#FFE790" p-id="3403"></path><path d="M904 279.68l-832 13.12v-6.72l832-12.8v6.4z" fill="#FFE78F" p-id="3404"></path><path d="M904 286.4l-832 13.12v-6.72l832-13.12v6.72z" fill="#FFE78E" p-id="3405"></path><path d="M904 292.8l-832 13.12v-6.4l832-13.12v6.4z" fill="#FFE68D" p-id="3406"></path><path d="M904 299.52l-832 13.12v-6.72l832-13.12v6.72z" fill="#FFE68C" p-id="3407"></path><path d="M904 306.24l-832 12.8v-6.4l832-13.12v6.72z" fill="#FFE68B" p-id="3408"></path><path d="M904 312.64l-832 13.12v-6.72l832-12.8v6.4z" fill="#FFE68A" p-id="3409"></path><path d="M904 319.36l-832 12.8v-6.4l832-13.12v6.72z" fill="#FFE588" p-id="3410"></path><path d="M904 325.76l-832 13.12v-6.72l832-12.8v6.4z" fill="#FFE587" p-id="3411"></path><path d="M904 332.48l-832 12.8v-6.4l832-13.12v6.72z" fill="#FFE586" p-id="3412"></path><path d="M904 339.2l-832 12.8v-6.72l832-12.8v6.72z" fill="#FFE585" p-id="3413"></path><path d="M904 345.6l-832 13.12V352l832-12.8v6.4z" fill="#FFE484" p-id="3414"></path><path d="M904 352.32l-832 12.8v-6.4l832-13.12v6.72z" fill="#FFE483" p-id="3415"></path><path d="M904 358.72l-832 13.12v-6.72l832-12.8v6.4z" fill="#FFE482" p-id="3416"></path><path d="M904 365.44l-832 12.8v-6.4l832-13.12v6.72z" fill="#FFE480" p-id="3417"></path><path d="M904 371.84l-832 13.12v-6.72l832-12.8v6.4z" fill="#FFE37F" p-id="3418"></path><path d="M904 378.56l-832 12.8v-6.4l832-13.12v6.72z" fill="#FFE37E" p-id="3419"></path><path d="M904 384.96l-832 13.12v-6.72l832-12.8v6.4z" fill="#FFE37D" p-id="3420"></path><path d="M904 391.68l-832 13.12v-6.72l832-13.12v6.72z" fill="#FFE37C" p-id="3421"></path><path d="M904 398.4l-832 12.8v-6.4l832-13.12v6.72z" fill="#FFE27B" p-id="3422"></path><path d="M904 404.8l-832 13.12v-6.72l832-12.8v6.4z" fill="#FFE27A" p-id="3423"></path><path d="M904 411.52l-832 12.8v-6.4l832-13.12v6.72z" fill="#FFE279" p-id="3424"></path><path d="M904 417.92l-832 13.12v-6.72l832-12.8v6.4z" fill="#FFE277" p-id="3425"></path><path d="M904 424.64l-832 12.8v-6.4l832-13.12v6.72z" fill="#FFE176" p-id="3426"></path><path d="M904 431.04l-832 13.12v-6.72l832-12.8v6.4z" fill="#FFE175" p-id="3427"></path><path d="M904 437.76l-832 13.12v-6.72l832-13.12v6.72z" fill="#FFE174" p-id="3428"></path><path d="M904 444.16l-832 13.12v-6.4l832-13.12v6.4z" fill="#FFE173" p-id="3429"></path><path d="M904 450.88l-832 13.12v-6.72l832-13.12v6.72z" fill="#FFE172" p-id="3430"></path><path d="M904 457.6l-832 12.8v-6.4l832-13.12v6.72z" fill="#FFE071" p-id="3431"></path><path d="M904 464l-832 13.12v-6.72l832-12.8v6.4z" fill="#FFE070" p-id="3432"></path><path d="M904 470.72l-832 12.8v-6.4l832-13.12v6.72z" fill="#FFE06F" p-id="3433"></path><path d="M904 477.12l-832 13.12v-6.72l832-12.8v6.4z" fill="#FFE06D" p-id="3434"></path><path d="M904 483.84l-832 13.12v-6.72l832-13.12v6.72z" fill="#FFDF6C" p-id="3435"></path><path d="M904 490.24l-832 13.12v-6.4l832-13.12v6.4z" fill="#FFDF6B" p-id="3436"></path><path d="M904 496.96l-832 13.12v-6.72l832-13.12v6.72z" fill="#FFDF6A" p-id="3437"></path><path d="M904 503.68l-832 12.8v-6.4l832-13.12v6.72z" fill="#FFDF69" p-id="3438"></path><path d="M904 510.08l-832 13.12v-6.72l832-12.8v6.4z" fill="#FFDE68" p-id="3439"></path><path d="M904 516.8l-832 12.8v-6.4l832-13.12v6.72z" fill="#FFDE67" p-id="3440"></path><path d="M904 523.2l-832 13.12v-6.72l832-12.8v6.4z" fill="#FFDE66" p-id="3441"></path><path d="M904 529.92l-832 12.8v-6.4l832-13.12v6.72z" fill="#FFDE65" p-id="3442"></path><path d="M904 536.32l-832 13.12v-6.72l832-12.8v6.4z" fill="#FFDD64" p-id="3443"></path><path d="M904 543.04l-832 13.12v-6.72l832-13.12v6.72z" fill="#FFDD63" p-id="3444"></path><path d="M904 549.76l-832 12.8v-6.4l832-13.12v6.72z" fill="#FFDD62" p-id="3445"></path><path d="M904 556.16l-832 13.12v-6.72l832-12.8v6.4z" fill="#FFDD61" p-id="3446"></path><path d="M904 562.88l-832 12.8v-6.4l832-13.12v6.72z" fill="#FFDD60" p-id="3447"></path><path d="M904 569.28l-832 13.12v-6.72l832-12.8v6.4z" fill="#FFDC5E" p-id="3448"></path><path d="M904 576l-832 13.12v-6.72l832-13.12V576z" fill="#FFDC5D" p-id="3449"></path><path d="M904 582.4l-832 13.12v-6.4l832-13.12v6.4z" fill="#FFDC5C" p-id="3450"></path><path d="M904 589.12l-832 13.12v-6.72l832-13.12v6.72z" fill="#FFDC5B" p-id="3451"></path><path d="M904 595.52l-832 13.12v-6.4l832-13.12v6.4z" fill="#FFDB5A" p-id="3452"></path><path d="M904 602.24l-832 13.12v-6.72l832-13.12v6.72z" fill="#FFDB59" p-id="3453"></path><path d="M904 608.96l-832 12.8v-6.4l832-13.12v6.72z" fill="#FFDB58" p-id="3454"></path><path d="M904 615.36l-832 13.12v-6.72l832-12.8v6.4z" fill="#FFDB57" p-id="3455"></path><path d="M904 622.08l-832 12.8v-6.4l832-13.12v6.72z" fill="#FFDA56" p-id="3456"></path><path d="M904 628.48l-832 13.12v-6.72l832-12.8v6.4z" fill="#FFDA55" p-id="3457"></path><path d="M904 635.2l-832 12.8v-6.4l832-13.12v6.72z" fill="#FFDA54" p-id="3458"></path><path d="M904 641.6l-832 13.12v-6.72l832-12.8v6.4z" fill="#FFDA53" p-id="3459"></path><path d="M904 648.32l-832 13.12v-6.72l832-13.12v6.72z" fill="#FFDA52" p-id="3460"></path><path d="M904 655.04l-832 12.8v-6.4l832-13.12v6.72z" fill="#FFD951" p-id="3461"></path><path d="M904 661.44l-832 13.12v-6.72l832-12.8v6.4z" fill="#FFD950" p-id="3462"></path><path d="M904 668.16l-832 12.8v-6.4l832-13.12v6.72z" fill="#FFD94F" p-id="3463"></path><path d="M904 674.56l-832 13.12v-6.72l832-12.8v6.4z" fill="#FFD94E" p-id="3464"></path><path d="M904 681.28l-832 13.12v-6.72l832-13.12v6.72z" fill="#FFD94D" p-id="3465"></path><path d="M904 688l-832 12.8v-6.4l832-13.12v6.72z" fill="#FFD84C" p-id="3466"></path><path d="M904 694.4l-832 13.12v-6.72l832-12.8v6.4z" fill="#FFD84B" p-id="3467"></path><path d="M904 701.12l-832 12.8v-6.4l832-13.12v6.72z" fill="#FFD84A" p-id="3468"></path><path d="M904 707.52l-832 13.12v-6.72l832-12.8v6.4z" fill="#FFD849" p-id="3469"></path><path d="M904 714.24l-832 12.8v-6.4l832-13.12v6.72z" fill="#FFD748" p-id="3470"></path><path d="M904 720.64l-832 13.12v-6.72l832-12.8v6.4z" fill="#FFD747" p-id="3471"></path><path d="M904 727.36l-832 13.12v-6.72l832-13.12v6.72z" fill="#FFD747" p-id="3472"></path><path d="M904 733.76l-832 13.12v-6.4l832-13.12v6.4z" fill="#FFD746" p-id="3473"></path><path d="M904 740.48l-832 13.12v-6.72l832-13.12v6.72z" fill="#FFD745" p-id="3474"></path><path d="M904 746.88l-832 13.12v-6.4l832-13.12v6.4z" fill="#FFD644" p-id="3475"></path><path d="M904 753.6l-832 13.12v-6.72l832-13.12v6.72z" fill="#FFD643" p-id="3476"></path><path d="M904 760.32l-832 12.8v-6.4l832-13.12v6.72z" fill="#FFD642" p-id="3477"></path><path d="M904 766.72l-832 13.12v-6.72l832-12.8v6.4z" fill="#FFD641" p-id="3478"></path><path d="M904 773.44l-832 12.8v-6.4l832-13.12v6.72z" fill="#FFD640" p-id="3479"></path><path d="M904 779.84l-832 13.12v-6.72l832-12.8v6.4z" fill="#FFD53F" p-id="3480"></path><path d="M904 786.56l-832 13.12v-6.72l832-13.12v6.72z" fill="#FFD53E" p-id="3481"></path><path d="M904 793.28l-832 12.8v-6.4l832-13.12v6.72z" fill="#FFD53E" p-id="3482"></path><path d="M904 799.68l-832 13.12v-6.72l832-12.8v6.4z" fill="#FFD53D" p-id="3483"></path><path d="M904 806.4l-832 12.8v-6.4l832-13.12v6.72z" fill="#FFD53C" p-id="3484"></path><path d="M904 812.8l-832 13.12v-6.72l832-12.8v6.4z" fill="#FFD53B" p-id="3485"></path><path d="M904 819.52l-832 12.8v-6.4l832-13.12v6.72z" fill="#FFD43A" p-id="3486"></path><path d="M904 825.92l-832 13.12v-6.72l832-12.8v6.4z" fill="#FFD439" p-id="3487"></path><path d="M904 832.64l-832 13.12v-6.72l832-13.12v6.72z" fill="#FFD439" p-id="3488"></path><path d="M904 839.36l-832 12.8v-6.4l832-13.12v6.72z" fill="#FFD438" p-id="3489"></path><path d="M904 845.76l-832 13.12v-6.72l832-12.8v6.4z" fill="#FFD437" p-id="3490"></path><path d="M904 852.48l-832 12.8v-6.4l832-13.12v6.72z" fill="#FFD436" p-id="3491"></path><path d="M904 858.88l-832 13.12v-6.72l832-12.8v6.4z" fill="#FFD336" p-id="3492"></path><path d="M904 865.6l-832 12.8v-6.4l832-13.12v6.72z" fill="#FFD335" p-id="3493"></path><path d="M904 872l-832 13.12v-6.72l832-12.8v6.4z" fill="#FFD334" p-id="3494"></path><path d="M904 878.72l-832 12.8v-6.4l832-13.12v6.72z" fill="#FFD334" p-id="3495"></path><path d="M72 891.52l832-12.8V896h-832v-4.48z" fill="#FFD334" p-id="3496"></path><path d="M696 558.08v-96l-256 192 256 192v-96h256v-192h-256z" fill="#52A1F9" p-id="3497"></path></svg>