<?xml version="1.0" standalone="no"?><!DOCTYPE svg PUBLIC "-//W3C//DTD SVG 1.1//EN" "http://www.w3.org/Graphics/SVG/1.1/DTD/svg11.dtd"><svg t="1683790987718" class="icon" viewBox="0 0 1024 1024" version="1.1" xmlns="http://www.w3.org/2000/svg" p-id="5305" xmlns:xlink="http://www.w3.org/1999/xlink" width="256" height="256"><path d="M972.8 348.16H51.2V138.24a30.72 30.72 0 0 1 30.72-25.6h332.8a25.6 25.6 0 0 1 25.6 15.36l40.96 56.32c0 10.24 15.36 15.36 25.6 15.36h435.2a30.72 30.72 0 0 1 30.72 30.72v117.76z" fill="#3D99F5" p-id="5306"></path><path d="M911.36 348.16H112.64v-46.08a25.6 25.6 0 0 1 25.6-25.6h747.52a25.6 25.6 0 0 1 25.6 25.6z" fill="#EBF1F7" p-id="5307"></path><path d="M51.2 348.16v537.6a30.72 30.72 0 0 0 30.72 25.6h860.16a30.72 30.72 0 0 0 30.72-25.6V348.16z m491.52 384v-76.8H332.8v-71.68h209.92V512l143.36 107.52z" fill="#52A1F9" p-id="5308"></path></svg>